<mxfile host="app.diagrams.net" modified="2023-09-11T11:11:24.005Z" agent="Mozilla/5.0 (Windows NT 10.0; Win64; x64) AppleWebKit/537.36 (KHTML, like Gecko) Chrome/116.0.0.0 Safari/537.36" etag="3nkTWZXNatzKMmS-TRbK" version="21.7.4" type="device">
  <diagram name="1 oldal" id="o88uKX9uiejmLzYzDQUl">
    <mxGraphModel dx="1434" dy="790" grid="1" gridSize="10" guides="1" tooltips="1" connect="1" arrows="1" fold="1" page="1" pageScale="1" pageWidth="827" pageHeight="1169" math="0" shadow="0">
      <root>
        <mxCell id="0" />
        <mxCell id="1" parent="0" />
        <mxCell id="aIGXmZt29PcnneDyER7Z-1" value="EMBER" style="rounded=0;whiteSpace=wrap;html=1;labelBackgroundColor=none;fillColor=#09555B;strokeColor=#BAC8D3;fontColor=#EEEEEE;" vertex="1" parent="1">
          <mxGeometry x="350" y="300" width="150" height="80" as="geometry" />
        </mxCell>
        <mxCell id="aIGXmZt29PcnneDyER7Z-2" value="NÉV" style="ellipse;whiteSpace=wrap;html=1;labelBackgroundColor=none;fillColor=#09555B;strokeColor=#BAC8D3;fontColor=#EEEEEE;" vertex="1" parent="1">
          <mxGeometry x="240" y="120" width="90" height="60" as="geometry" />
        </mxCell>
        <mxCell id="aIGXmZt29PcnneDyER7Z-3" value="A.N" style="ellipse;whiteSpace=wrap;html=1;labelBackgroundColor=none;fillColor=#09555B;strokeColor=#BAC8D3;fontColor=#EEEEEE;" vertex="1" parent="1">
          <mxGeometry x="100" y="240" width="120" height="80" as="geometry" />
        </mxCell>
        <mxCell id="aIGXmZt29PcnneDyER7Z-4" value="Azonosító" style="ellipse;whiteSpace=wrap;html=1;labelBackgroundColor=none;fillColor=#09555B;strokeColor=#BAC8D3;fontColor=#EEEEEE;" vertex="1" parent="1">
          <mxGeometry x="260" y="210" width="100" height="70" as="geometry" />
        </mxCell>
        <mxCell id="aIGXmZt29PcnneDyER7Z-5" value="KOR" style="ellipse;whiteSpace=wrap;html=1;labelBackgroundColor=none;fillColor=#09555B;strokeColor=#BAC8D3;fontColor=#EEEEEE;" vertex="1" parent="1">
          <mxGeometry x="520" y="190" width="90" height="60" as="geometry" />
        </mxCell>
        <mxCell id="aIGXmZt29PcnneDyER7Z-6" value="NEM" style="ellipse;whiteSpace=wrap;html=1;labelBackgroundColor=none;fillColor=#09555B;strokeColor=#BAC8D3;fontColor=#EEEEEE;" vertex="1" parent="1">
          <mxGeometry x="600" y="300" width="120" height="80" as="geometry" />
        </mxCell>
        <mxCell id="aIGXmZt29PcnneDyER7Z-7" value="magasság" style="ellipse;whiteSpace=wrap;html=1;labelBackgroundColor=none;fillColor=#09555B;strokeColor=#BAC8D3;fontColor=#EEEEEE;" vertex="1" parent="1">
          <mxGeometry x="470" y="470" width="120" height="80" as="geometry" />
        </mxCell>
        <mxCell id="aIGXmZt29PcnneDyER7Z-8" value="TÖMEG" style="ellipse;whiteSpace=wrap;html=1;labelBackgroundColor=none;fillColor=#09555B;strokeColor=#BAC8D3;fontColor=#EEEEEE;" vertex="1" parent="1">
          <mxGeometry x="200" y="460" width="120" height="80" as="geometry" />
        </mxCell>
        <mxCell id="aIGXmZt29PcnneDyER7Z-9" value="" style="endArrow=none;html=1;rounded=0;exitX=0.733;exitY=0.075;exitDx=0;exitDy=0;exitPerimeter=0;labelBackgroundColor=none;fontColor=default;strokeColor=#0B4D6A;" edge="1" parent="1" source="aIGXmZt29PcnneDyER7Z-8">
          <mxGeometry width="50" height="50" relative="1" as="geometry">
            <mxPoint x="370" y="430" as="sourcePoint" />
            <mxPoint x="420" y="380" as="targetPoint" />
          </mxGeometry>
        </mxCell>
        <mxCell id="aIGXmZt29PcnneDyER7Z-10" value="" style="endArrow=none;html=1;rounded=0;labelBackgroundColor=none;fontColor=default;strokeColor=#0B4D6A;" edge="1" parent="1">
          <mxGeometry width="50" height="50" relative="1" as="geometry">
            <mxPoint x="530" y="470" as="sourcePoint" />
            <mxPoint x="420" y="380" as="targetPoint" />
          </mxGeometry>
        </mxCell>
        <mxCell id="aIGXmZt29PcnneDyER7Z-11" value="" style="endArrow=none;html=1;rounded=0;labelBackgroundColor=none;fontColor=default;strokeColor=#0B4D6A;" edge="1" parent="1">
          <mxGeometry width="50" height="50" relative="1" as="geometry">
            <mxPoint x="500" y="340" as="sourcePoint" />
            <mxPoint x="600" y="340" as="targetPoint" />
          </mxGeometry>
        </mxCell>
        <mxCell id="aIGXmZt29PcnneDyER7Z-12" value="" style="endArrow=none;html=1;rounded=0;entryX=0.992;entryY=0.688;entryDx=0;entryDy=0;entryPerimeter=0;exitX=0.04;exitY=0.814;exitDx=0;exitDy=0;exitPerimeter=0;labelBackgroundColor=none;fontColor=default;strokeColor=#0B4D6A;" edge="1" parent="1" source="aIGXmZt29PcnneDyER7Z-4" target="aIGXmZt29PcnneDyER7Z-3">
          <mxGeometry width="50" height="50" relative="1" as="geometry">
            <mxPoint x="390" y="330" as="sourcePoint" />
            <mxPoint x="440" y="280" as="targetPoint" />
          </mxGeometry>
        </mxCell>
        <mxCell id="aIGXmZt29PcnneDyER7Z-13" value="" style="endArrow=none;html=1;rounded=0;entryX=0.233;entryY=0.983;entryDx=0;entryDy=0;entryPerimeter=0;exitX=0.533;exitY=0;exitDx=0;exitDy=0;exitPerimeter=0;labelBackgroundColor=none;fontColor=default;strokeColor=#0B4D6A;" edge="1" parent="1" source="aIGXmZt29PcnneDyER7Z-1" target="aIGXmZt29PcnneDyER7Z-5">
          <mxGeometry width="50" height="50" relative="1" as="geometry">
            <mxPoint x="390" y="330" as="sourcePoint" />
            <mxPoint x="440" y="280" as="targetPoint" />
          </mxGeometry>
        </mxCell>
        <mxCell id="aIGXmZt29PcnneDyER7Z-14" value="" style="endArrow=none;html=1;rounded=0;entryX=1;entryY=1;entryDx=0;entryDy=0;exitX=0.5;exitY=0;exitDx=0;exitDy=0;labelBackgroundColor=none;fontColor=default;strokeColor=#0B4D6A;" edge="1" parent="1" source="aIGXmZt29PcnneDyER7Z-1" target="aIGXmZt29PcnneDyER7Z-4">
          <mxGeometry width="50" height="50" relative="1" as="geometry">
            <mxPoint x="390" y="330" as="sourcePoint" />
            <mxPoint x="440" y="280" as="targetPoint" />
          </mxGeometry>
        </mxCell>
        <mxCell id="aIGXmZt29PcnneDyER7Z-15" value="" style="endArrow=none;html=1;rounded=0;exitX=0.42;exitY=0.043;exitDx=0;exitDy=0;exitPerimeter=0;entryX=0.5;entryY=1;entryDx=0;entryDy=0;labelBackgroundColor=none;fontColor=default;strokeColor=#0B4D6A;" edge="1" parent="1" source="aIGXmZt29PcnneDyER7Z-4" target="aIGXmZt29PcnneDyER7Z-2">
          <mxGeometry width="50" height="50" relative="1" as="geometry">
            <mxPoint x="250" y="210" as="sourcePoint" />
            <mxPoint x="300" y="160" as="targetPoint" />
          </mxGeometry>
        </mxCell>
        <mxCell id="aIGXmZt29PcnneDyER7Z-17" value="EMBER" style="rounded=0;whiteSpace=wrap;html=1;labelBackgroundColor=none;fillColor=#09555B;strokeColor=#BAC8D3;fontColor=#EEEEEE;" vertex="1" parent="1">
          <mxGeometry x="360" y="840" width="150" height="80" as="geometry" />
        </mxCell>
        <mxCell id="aIGXmZt29PcnneDyER7Z-18" value="NÉV" style="ellipse;whiteSpace=wrap;html=1;labelBackgroundColor=none;fillColor=#09555B;strokeColor=#BAC8D3;fontColor=#EEEEEE;" vertex="1" parent="1">
          <mxGeometry x="240" y="720" width="90" height="60" as="geometry" />
        </mxCell>
        <mxCell id="aIGXmZt29PcnneDyER7Z-19" value="A.N" style="ellipse;whiteSpace=wrap;html=1;labelBackgroundColor=none;fillColor=#09555B;strokeColor=#BAC8D3;fontColor=#EEEEEE;" vertex="1" parent="1">
          <mxGeometry x="130" y="830" width="120" height="80" as="geometry" />
        </mxCell>
        <mxCell id="aIGXmZt29PcnneDyER7Z-20" value="Azonosító" style="ellipse;whiteSpace=wrap;html=1;labelBackgroundColor=none;fillColor=#09555B;strokeColor=#BAC8D3;fontColor=#EEEEEE;" vertex="1" parent="1">
          <mxGeometry x="385" y="700" width="100" height="70" as="geometry" />
        </mxCell>
        <mxCell id="aIGXmZt29PcnneDyER7Z-21" value="KOR" style="ellipse;whiteSpace=wrap;html=1;labelBackgroundColor=none;fillColor=#09555B;strokeColor=#BAC8D3;fontColor=#EEEEEE;" vertex="1" parent="1">
          <mxGeometry x="530" y="740" width="90" height="60" as="geometry" />
        </mxCell>
        <mxCell id="aIGXmZt29PcnneDyER7Z-22" value="TÖMEG" style="ellipse;whiteSpace=wrap;html=1;labelBackgroundColor=none;fillColor=#09555B;strokeColor=#BAC8D3;fontColor=#EEEEEE;shadow=0;" vertex="1" parent="1">
          <mxGeometry x="210" y="1000" width="120" height="80" as="geometry" />
        </mxCell>
        <mxCell id="aIGXmZt29PcnneDyER7Z-23" value="" style="endArrow=none;html=1;rounded=0;exitX=0.733;exitY=0.075;exitDx=0;exitDy=0;exitPerimeter=0;labelBackgroundColor=none;fontColor=default;strokeColor=#0B4D6A;" edge="1" parent="1" source="aIGXmZt29PcnneDyER7Z-22">
          <mxGeometry width="50" height="50" relative="1" as="geometry">
            <mxPoint x="380" y="970" as="sourcePoint" />
            <mxPoint x="430" y="920" as="targetPoint" />
          </mxGeometry>
        </mxCell>
        <mxCell id="aIGXmZt29PcnneDyER7Z-24" value="" style="endArrow=none;html=1;rounded=0;labelBackgroundColor=none;fontColor=default;strokeColor=#0B4D6A;" edge="1" parent="1">
          <mxGeometry width="50" height="50" relative="1" as="geometry">
            <mxPoint x="540" y="1010" as="sourcePoint" />
            <mxPoint x="430" y="920" as="targetPoint" />
          </mxGeometry>
        </mxCell>
        <mxCell id="aIGXmZt29PcnneDyER7Z-25" value="" style="endArrow=none;html=1;rounded=0;labelBackgroundColor=none;fontColor=default;strokeColor=#0B4D6A;" edge="1" parent="1">
          <mxGeometry width="50" height="50" relative="1" as="geometry">
            <mxPoint x="510" y="880" as="sourcePoint" />
            <mxPoint x="610" y="880" as="targetPoint" />
          </mxGeometry>
        </mxCell>
        <mxCell id="aIGXmZt29PcnneDyER7Z-26" value="" style="endArrow=none;html=1;rounded=0;entryX=0.983;entryY=0.588;entryDx=0;entryDy=0;entryPerimeter=0;exitX=0;exitY=0.5;exitDx=0;exitDy=0;labelBackgroundColor=none;fontColor=default;strokeColor=#0B4D6A;" edge="1" parent="1" source="aIGXmZt29PcnneDyER7Z-17" target="aIGXmZt29PcnneDyER7Z-19">
          <mxGeometry width="50" height="50" relative="1" as="geometry">
            <mxPoint x="400" y="870" as="sourcePoint" />
            <mxPoint x="450" y="820" as="targetPoint" />
          </mxGeometry>
        </mxCell>
        <mxCell id="aIGXmZt29PcnneDyER7Z-27" value="" style="endArrow=none;html=1;rounded=0;entryX=0.022;entryY=0.817;entryDx=0;entryDy=0;entryPerimeter=0;exitX=0.533;exitY=0;exitDx=0;exitDy=0;exitPerimeter=0;labelBackgroundColor=none;fontColor=default;strokeColor=#0B4D6A;" edge="1" parent="1" source="aIGXmZt29PcnneDyER7Z-17" target="aIGXmZt29PcnneDyER7Z-21">
          <mxGeometry width="50" height="50" relative="1" as="geometry">
            <mxPoint x="400" y="870" as="sourcePoint" />
            <mxPoint x="450" y="820" as="targetPoint" />
          </mxGeometry>
        </mxCell>
        <mxCell id="aIGXmZt29PcnneDyER7Z-28" value="" style="endArrow=none;html=1;rounded=0;entryX=0.5;entryY=1;entryDx=0;entryDy=0;exitX=0.5;exitY=0;exitDx=0;exitDy=0;labelBackgroundColor=none;fontColor=default;strokeColor=#0B4D6A;" edge="1" parent="1" source="aIGXmZt29PcnneDyER7Z-17" target="aIGXmZt29PcnneDyER7Z-20">
          <mxGeometry width="50" height="50" relative="1" as="geometry">
            <mxPoint x="400" y="870" as="sourcePoint" />
            <mxPoint x="450" y="820" as="targetPoint" />
          </mxGeometry>
        </mxCell>
        <mxCell id="aIGXmZt29PcnneDyER7Z-29" value="" style="endArrow=none;html=1;rounded=0;entryX=0.5;entryY=1;entryDx=0;entryDy=0;labelBackgroundColor=none;fontColor=default;strokeColor=#0B4D6A;" edge="1" parent="1" target="aIGXmZt29PcnneDyER7Z-18">
          <mxGeometry width="50" height="50" relative="1" as="geometry">
            <mxPoint x="430" y="840" as="sourcePoint" />
            <mxPoint x="310" y="700" as="targetPoint" />
          </mxGeometry>
        </mxCell>
        <mxCell id="aIGXmZt29PcnneDyER7Z-30" value="magasság" style="ellipse;whiteSpace=wrap;html=1;labelBackgroundColor=none;fillColor=#09555B;strokeColor=#BAC8D3;fontColor=#EEEEEE;" vertex="1" parent="1">
          <mxGeometry x="490" y="1000" width="120" height="80" as="geometry" />
        </mxCell>
        <mxCell id="aIGXmZt29PcnneDyER7Z-31" value="NEM" style="ellipse;whiteSpace=wrap;html=1;labelBackgroundColor=none;fillColor=#09555B;strokeColor=#BAC8D3;fontColor=#EEEEEE;" vertex="1" parent="1">
          <mxGeometry x="600" y="840" width="120" height="80" as="geometry" />
        </mxCell>
      </root>
    </mxGraphModel>
  </diagram>
</mxfile>
